<?xml version="1.0" encoding="UTF-8"?>
<svg id="Calque_1" xmlns="http://www.w3.org/2000/svg" version="1.1" xmlns:xlink="http://www.w3.org/1999/xlink" viewBox="0 0 595.28 841.89">
  <!-- Generator: Adobe Illustrator 30.2.1, SVG Export Plug-In . SVG Version: 2.1.1 Build 1)  -->
  <defs>
    <style>
      .st0 {
        stroke-width: 1.93px;
      }

      .st0, .st1, .st2, .st3, .st4, .st5, .st6, .st7, .st8, .st9 {
        fill: #060707;
      }

      .st0, .st1, .st2, .st3, .st5, .st6, .st7, .st8, .st9 {
        stroke-miterlimit: 10;
      }

      .st0, .st1, .st2, .st5, .st6, .st7, .st8, .st9 {
        stroke: #060707;
      }

      .st2 {
        stroke-width: 1.28px;
      }

      .st10 {
        opacity: .15;
      }

      .st3 {
        stroke: #fff;
      }

      .st3, .st9 {
        stroke-width: .32px;
      }

      .st5 {
        stroke-width: .16px;
      }

      .st6 {
        stroke-width: .96px;
      }

      .st7 {
        stroke-width: .48px;
      }

      .st11 {
        clip-path: url(#clippath);
      }

      .st8 {
        stroke-width: .64px;
      }
    </style>
    <clipPath id="clippath">
      <rect class="st4" x="291.2" y="437.2" width="4.69" height="4.1"/>
    </clipPath>
  </defs>
  <g class="st10">
    <g>
      <rect class="st4" x="291.2" y="437.2" width="4.69" height="4.1"/>
      <g class="st11">
        <polygon class="st4" points="291.2 439.86 293.38 440.98 293.55 440.57 294.95 441.29 295.89 439.4 294.52 438.68 294.72 438.31 292.54 437.2 292.54 437.2 291.2 439.86"/>
      </g>
    </g>
  </g>
  <rect class="st1" x="288.68" y="434.04" width="12.38" height="10.98"/>
  <rect class="st8" x="288.68" y="434.04" width="12.38" height="10.98"/>
  <polyline class="st1" points="288.68 434.04 294.87 429.16 301.06 434.04"/>
  <polyline class="st8" points="288.68 434.04 294.87 429.16 301.06 434.04"/>
  <line class="st2" x1="277.88" y1="434.04" x2="289.4" y2="434.04"/>
  <line class="st9" x1="279.22" y1="432.91" x2="290.74" y2="432.91"/>
  <line class="st9" x1="281.37" y1="432.91" x2="281.37" y2="433.93"/>
  <line class="st9" x1="283.94" y1="432.91" x2="283.94" y2="434.04"/>
  <line class="st9" x1="285.81" y1="432.91" x2="285.81" y2="434.04"/>
  <line class="st9" x1="288.06" y1="432.91" x2="288.06" y2="434.04"/>
  <line class="st9" x1="289.4" y1="432.91" x2="289.4" y2="434.04"/>
  <path class="st1" d="M291.49,417.67c0,1.32-1.07,2.38-2.38,2.38s-2.38-1.07-2.38-2.38,1.07-2.38,2.38-2.38,2.38,1.07,2.38,2.38"/>
  <path class="st9" d="M291.49,417.67c0,1.32-1.07,2.38-2.38,2.38s-2.38-1.07-2.38-2.38,1.07-2.38,2.38-2.38,2.38,1.07,2.38,2.38Z"/>
  <line class="st0" x1="287.15" y1="414.43" x2="288.06" y2="415.88"/>
  <line class="st0" x1="285.49" y1="416.84" x2="287.15" y2="417.16"/>
  <line class="st0" x1="285.81" y1="419.68" x2="287.61" y2="418.61"/>
  <line class="st0" x1="290.21" y1="414" x2="289.72" y2="415.88"/>
  <line class="st0" x1="292.69" y1="415.88" x2="291.25" y2="416.62"/>
  <line class="st0" x1="293.06" y1="418.71" x2="291.25" y2="418.24"/>
  <path class="st7" d="M293.15,417.88c0,2.15-1.76,3.89-3.94,3.89s-3.94-1.74-3.94-3.89,1.76-3.88,3.94-3.88,3.94,1.74,3.94,3.88Z"/>
  <line class="st0" x1="271.48" y1="443.92" x2="287.15" y2="421.19"/>
  <line class="st7" x1="279.6" y1="429.86" x2="285.28" y2="421.19"/>
  <line class="st7" x1="279.6" y1="429.86" x2="280.51" y2="430.45"/>
  <line class="st7" x1="280.66" y1="428.35" x2="281.57" y2="428.93"/>
  <line class="st7" x1="281.98" y1="426.12" x2="282.89" y2="426.71"/>
  <line class="st7" x1="283.19" y1="424.56" x2="284.1" y2="425.15"/>
  <line class="st7" x1="284.31" y1="422.74" x2="285.22" y2="423.33"/>
  <line class="st7" x1="285.19" y1="421.16" x2="286.32" y2="422.01"/>
  <path class="st1" d="M286.6,420.79l1.12-1.18,3.24-.71.54.35,3.81-.11.32.13s-.88,2.23-.83,2.49l-5.68.13s-2.46-.78-2.5-1.11"/>
  <path class="st1" d="M287.05,412.92l8.73-.16s1.4.4.98,1.85c0,0-1.25,4.3-1.46,4.53-.21.24.32.13.32.13,0,0,1.47-2.54,2.41-7.07l.72-.48v-.4l-1.66-.08c.08-.16-.48-.86-.48-.86h-9c-.48,0-.56,2.38-.56,2.38"/>
  <line class="st2" x1="288.68" y1="411.45" x2="288.68" y2="415.6"/>
  <line class="st2" x1="291.11" y1="412.2" x2="291.11" y2="416.35"/>
  <line class="st6" x1="292.32" y1="411.92" x2="292.32" y2="420.27"/>
  <line class="st6" x1="293.72" y1="411.92" x2="293.72" y2="420.27"/>
  <line class="st6" x1="295.24" y1="411.7" x2="295.24" y2="419.54"/>
  <path class="st9" d="M291.53,422.13c0,1.02-.81,1.86-1.81,1.86s-1.81-.83-1.81-1.86.81-1.86,1.81-1.86,1.81.83,1.81,1.86Z"/>
  <path class="st1" d="M290.54,422.06c0,.46-.37.83-.83.83s-.83-.37-.83-.83.37-.83.83-.83.83.37.83.83"/>
  <line class="st6" x1="289.9" y1="422.74" x2="290.03" y2="423.98"/>
  <line class="st6" x1="290.17" y1="422.3" x2="291.28" y2="422.98"/>
  <line class="st2" x1="290.21" y1="422.09" x2="291.97" y2="421.55"/>
  <line class="st6" x1="289.42" y1="422.13" x2="287.94" y2="422.37"/>
  <line class="st6" x1="289.64" y1="422.08" x2="288.79" y2="423.7"/>
  <line class="st1" x1="294.47" y1="421.55" x2="294.47" y2="430.45"/>
  <line class="st2" x1="294.47" y1="421.55" x2="294.47" y2="430.45"/>
  <line class="st1" x1="289.71" y1="420.27" x2="289.71" y2="433.75"/>
  <line class="st2" x1="289.71" y1="420.27" x2="289.71" y2="433.75"/>
  <line class="st2" x1="289.72" y1="426.61" x2="294.28" y2="426.61"/>
  <line class="st6" x1="289.72" y1="430.45" x2="293.93" y2="426.71"/>
  <line class="st6" x1="289.72" y1="430.15" x2="291.83" y2="432.11"/>
  <line class="st6" x1="290.23" y1="422.25" x2="294.57" y2="426"/>
  <line class="st8" x1="289.53" y1="426.89" x2="294.47" y2="429.81"/>
  <line class="st8" x1="291.05" y1="420.69" x2="294.47" y2="423.98"/>
  <line class="st7" x1="292.9" y1="421.55" x2="292.9" y2="431.38"/>
  <line class="st7" x1="293.72" y1="421.5" x2="293.72" y2="431.34"/>
  <line class="st7" x1="292.15" y1="421.5" x2="292.15" y2="432"/>
  <line class="st7" x1="291.49" y1="421.76" x2="291.49" y2="432.26"/>
  <line class="st7" x1="290.54" y1="421.76" x2="290.54" y2="433.39"/>
  <line class="st9" x1="289.84" y1="412.01" x2="295.92" y2="417.88"/>
  <line class="st9" x1="290.66" y1="410.68" x2="296.74" y2="416.55"/>
  <line class="st9" x1="292.54" y1="410.9" x2="297.17" y2="415.37"/>
  <line class="st9" x1="294.57" y1="421.82" x2="289.64" y2="426.42"/>
  <line class="st7" x1="290.54" y1="432" x2="294.28" y2="428.76"/>
  <line class="st7" x1="291.49" y1="424.42" x2="293.93" y2="426.47"/>
  <line class="st9" x1="288.68" y1="414.94" x2="296.93" y2="414.94"/>
  <line class="st9" x1="290.9" y1="417.67" x2="296.38" y2="417.67"/>
  <line class="st9" x1="290.39" y1="418.71" x2="295.62" y2="418.71"/>
  <line class="st5" x1="296.93" y1="413.13" x2="291.53" y2="418.48"/>
  <line class="st5" x1="297.4" y1="414.49" x2="292" y2="419.83"/>
  <line class="st5" x1="296.17" y1="412.27" x2="290.78" y2="417.61"/>
  <line class="st5" x1="294.23" y1="417.61" x2="295.41" y2="418.9"/>
  <line class="st5" x1="289.4" y1="412.6" x2="291.11" y2="414.94"/>
  <line class="st5" x1="291.05" y1="412.6" x2="289.97" y2="414.28"/>
  <line class="st5" x1="293.15" y1="417.88" x2="294.28" y2="419.54"/>
  <path class="st1" d="M294.57,417.57c0,.23-.19.41-.43.41s-.43-.18-.43-.41.19-.41.43-.41.43.18.43.41"/>
  <path class="st5" d="M294.57,417.57c0,.23-.19.41-.43.41s-.43-.18-.43-.41.19-.41.43-.41.43.18.43.41Z"/>
  <line class="st4" x1="290.54" y1="433.75" x2="290.54" y2="436.66"/>
  <line class="st3" x1="290.54" y1="433.75" x2="290.54" y2="436.66"/>
  <line class="st4" x1="291.11" y1="433.25" x2="291.11" y2="436.66"/>
  <line class="st3" x1="291.11" y1="433.25" x2="291.11" y2="436.66"/>
  <line class="st4" x1="291.71" y1="433.09" x2="291.71" y2="436.66"/>
  <line class="st3" x1="291.71" y1="433.09" x2="291.71" y2="436.66"/>
  <line class="st4" x1="298.91" y1="433.93" x2="298.91" y2="436.66"/>
  <line class="st3" x1="298.91" y1="433.93" x2="298.91" y2="436.66"/>
  <line class="st4" x1="297.84" y1="433.09" x2="297.84" y2="436.66"/>
  <line class="st3" x1="297.84" y1="433.09" x2="297.84" y2="436.66"/>
  <line class="st4" x1="295.03" y1="432.42" x2="295.03" y2="436.66"/>
  <line class="st3" x1="295.03" y1="432.42" x2="295.03" y2="436.66"/>
  <line class="st4" x1="298.3" y1="433.25" x2="298.3" y2="436.66"/>
  <line class="st3" x1="298.3" y1="433.25" x2="298.3" y2="436.66"/>
  <line class="st4" x1="297.25" y1="432.77" x2="297.25" y2="436.66"/>
  <line class="st3" x1="297.25" y1="432.77" x2="297.25" y2="436.66"/>
  <line class="st4" x1="296.69" y1="432.53" x2="296.69" y2="436.54"/>
  <line class="st3" x1="296.69" y1="432.53" x2="296.69" y2="436.54"/>
  <line class="st4" x1="296.07" y1="432.42" x2="296.07" y2="436.55"/>
  <line class="st3" x1="296.07" y1="432.42" x2="296.07" y2="436.55"/>
  <line class="st4" x1="295.48" y1="432.48" x2="295.48" y2="436.6"/>
  <line class="st3" x1="295.48" y1="432.48" x2="295.48" y2="436.6"/>
  <line class="st4" x1="295.62" y1="438.37" x2="295.62" y2="442.9"/>
  <line class="st3" x1="295.62" y1="438.37" x2="295.62" y2="442.9"/>
  <line class="st4" x1="295.03" y1="438.37" x2="295.03" y2="442.9"/>
  <line class="st3" x1="295.03" y1="438.37" x2="295.03" y2="442.9"/>
  <line class="st4" x1="294.47" y1="438.37" x2="294.47" y2="442.9"/>
  <line class="st3" x1="294.47" y1="438.37" x2="294.47" y2="442.9"/>
  <line class="st4" x1="297.25" y1="438.48" x2="297.25" y2="442.26"/>
  <line class="st3" x1="297.25" y1="438.48" x2="297.25" y2="442.26"/>
  <line class="st4" x1="298.11" y1="438.48" x2="298.11" y2="442.26"/>
  <line class="st3" x1="298.11" y1="438.48" x2="298.11" y2="442.26"/>
  <line class="st4" x1="297.68" y1="438.48" x2="297.68" y2="442.26"/>
  <line class="st3" x1="297.68" y1="438.48" x2="297.68" y2="442.26"/>
  <line class="st4" x1="298.48" y1="438.48" x2="298.48" y2="442.26"/>
  <line class="st3" x1="298.48" y1="438.48" x2="298.48" y2="442.26"/>
  <line class="st4" x1="298.91" y1="438.48" x2="298.91" y2="442.26"/>
  <line class="st3" x1="298.91" y1="438.48" x2="298.91" y2="442.26"/>
  <line class="st4" x1="290.45" y1="438.48" x2="290.45" y2="442.26"/>
  <line class="st3" x1="290.45" y1="438.48" x2="290.45" y2="442.26"/>
  <line class="st4" x1="291.31" y1="438.48" x2="291.31" y2="442.26"/>
  <line class="st3" x1="291.31" y1="438.48" x2="291.31" y2="442.26"/>
  <line class="st4" x1="290.9" y1="438.48" x2="290.9" y2="442.26"/>
  <line class="st3" x1="290.9" y1="438.48" x2="290.9" y2="442.26"/>
  <line class="st4" x1="291.69" y1="438.48" x2="291.69" y2="442.26"/>
  <line class="st3" x1="291.69" y1="438.48" x2="291.69" y2="442.26"/>
  <line class="st4" x1="292.11" y1="438.48" x2="292.11" y2="442.26"/>
  <line class="st3" x1="292.11" y1="438.48" x2="292.11" y2="442.26"/>
  <line class="st4" x1="293.72" y1="438.37" x2="293.72" y2="442.9"/>
  <line class="st3" x1="293.72" y1="438.37" x2="293.72" y2="442.9"/>
  <line class="st4" x1="294.47" y1="432.42" x2="294.47" y2="436.66"/>
  <line class="st3" x1="294.47" y1="432.42" x2="294.47" y2="436.66"/>
  <line class="st4" x1="293.93" y1="432.48" x2="293.93" y2="436.6"/>
  <line class="st3" x1="293.93" y1="432.48" x2="293.93" y2="436.6"/>
  <line class="st4" x1="292.76" y1="432.65" x2="292.76" y2="436.66"/>
  <line class="st3" x1="292.76" y1="432.65" x2="292.76" y2="436.66"/>
  <line class="st4" x1="293.37" y1="432.48" x2="293.37" y2="436.66"/>
  <line class="st3" x1="293.37" y1="432.48" x2="293.37" y2="436.66"/>
  <line class="st4" x1="292.32" y1="432.77" x2="292.32" y2="436.66"/>
  <line class="st3" x1="292.32" y1="432.77" x2="292.32" y2="436.66"/>
  <rect class="st4" x="290.03" y="436.33" width="10.14" height="1.02"/>
  <rect class="st4" x="290.03" y="437.46" width="10.14" height="1.02"/>
  <rect class="st4" x="290.17" y="442.9" width="10.14" height="1.02"/>
  <rect class="st4" x="290.03" y="442.26" width="2.66" height="1.02"/>
  <rect class="st4" x="296.78" y="442.26" width="2.66" height="1.02"/>
  <path class="st4" d="M290.09,434c.91-.75,5.22-3,8.73.1,3.51,3.11,0,0,0,0l-.43-1.5-3.78-1.15-3.96,1.53-.56,1.01Z"/>
</svg>